<?xml version="1.0" encoding="UTF-8"?>
<svg version="1.1" xmlns="http://www.w3.org/2000/svg" width="1280" height="1280">
<path d="M0 0 C4.13665346 1.012165 8.17755526 1.73376253 12.41674805 2.21704102 C19.61927429 3.153955 26.57343924 4.91467374 33.60424805 6.71704102 C34.72814941 7.0010376 35.85205078 7.28503418 37.01000977 7.57763672 C47.85081642 10.41945529 58.38249687 14.01156673 68.10424805 19.65454102 C69.10911255 20.22978516 69.10911255 20.22978516 70.13427734 20.81665039 C76.49363553 24.53417245 82.2969648 28.78948502 88.04174805 33.40454102 C88.97631836 34.14704102 89.91088867 34.88954102 90.8737793 35.65454102 C97.12825115 40.69310855 103.11933659 45.98236341 109.04174805 51.40454102 C110.46293945 52.68651367 110.46293945 52.68651367 111.9128418 53.99438477 C117.28088359 58.84888535 122.53585907 63.79934541 127.66674805 68.90454102 C128.43027588 69.66118042 128.43027588 69.66118042 129.20922852 70.43310547 C131.43475748 72.66810638 133.28460425 74.76882532 135.04174805 77.40454102 C134.83375071 82.81247187 133.41920867 87.18709019 130.04174805 91.40454102 C127.50850574 93.73844622 124.90316402 95.96928401 122.2800293 98.20141602 C119.74752051 100.38006741 119.74752051 100.38006741 118.66674805 104.15454102 C116.6336973 108.22064251 115.40156982 108.278118 111.22924805 109.77954102 C105.38444902 111.89152722 103.45828 114.05301837 100.44018555 119.33032227 C98.06574441 122.85218887 94.91009156 123.93925938 91.04174805 125.40454102 C83.56830383 128.37909884 76.6758942 131.60151083 69.83081055 135.85375977 C64.24653793 138.95874048 60.3348079 139.98118934 54.04174805 138.40454102 C51.20030153 137.08688282 48.57241427 135.49783015 45.91674805 133.84204102 C45.17320068 133.3916748 44.42965332 132.94130859 43.66357422 132.47729492 C41.44855207 131.13187406 39.24390804 129.7708893 37.04174805 128.40454102 C35.87393869 127.68423045 34.70598373 126.96415585 33.5378418 126.24438477 C31.43330231 124.94550948 29.32912909 123.64604053 27.2253418 122.34594727 C2.19977554 107.08495778 -23.95772806 96.32527177 -53.83325195 101.60375977 C-59.9350831 103.167354 -66.09466738 105.25432292 -71.16918945 109.06469727 C-72.95825195 110.40454102 -72.95825195 110.40454102 -74.95825195 110.40454102 C-79.83442848 119.46029742 -80.26510187 129.33090627 -78.95825195 139.40454102 C-75.95665573 147.96791848 -68.07019044 153.00482177 -60.27075195 156.90454102 C-46.25314139 162.89301682 -31.06780039 165.88687162 -16.24740601 169.14859009 C-5.6000034 171.50031384 4.95323019 174.12121549 15.47924805 176.96704102 C16.48115173 177.23371078 16.48115173 177.23371078 17.5032959 177.50576782 C30.56978327 180.9955135 43.39202927 185.35988464 55.60424805 191.21704102 C56.65092651 191.7161499 56.65092651 191.7161499 57.71875 192.2253418 C75.08452121 200.67355482 90.75702672 211.59152049 104.60913086 225.02319336 C105.8898956 226.25812296 107.19479583 227.4679073 108.50268555 228.67407227 C135.32757767 254.04006675 146.36061926 289.42696845 150.57299805 324.91625977 C150.955764 327.7646764 151.43933181 330.48787065 152.10424805 333.27954102 C156.97713809 353.80706992 153.81537525 374.78009108 147.04174805 394.40454102 C146.75525391 395.26273438 146.46875977 396.12092773 146.17358398 397.00512695 C142.43967717 408.09597848 139.09529593 417.53379535 130.04174805 425.40454102 C123.25526467 431.32817151 117.81513109 436.75391239 112.98706055 444.39672852 C105.90511276 455.34672811 96.36685938 465.79176197 85.04174805 472.40454102 C83.92799805 473.54922852 83.92799805 473.54922852 82.79174805 474.71704102 C66.7859501 490.35907083 42.85405591 495.39764117 21.33862305 497.16772461 C19.03614633 497.40511857 16.78929163 497.77069849 14.51049805 498.17407227 C-0.98670148 500.67027618 -15.60120491 497.62287647 -30.81517029 494.73927307 C-36.30636406 493.69895591 -41.80610746 492.74082132 -47.3215332 491.83813477 C-63.00081024 489.26461173 -78.62500171 486.64250336 -93.95825195 482.40454102 C-94.76601074 482.18330566 -95.57376953 481.96207031 -96.40600586 481.73413086 C-107.96204295 478.50299458 -118.45333143 474.18516534 -128.95825195 468.40454102 C-129.96887695 467.8618457 -130.97950195 467.31915039 -132.02075195 466.76000977 C-149.09969199 457.22272124 -166.3019582 445.22987414 -177.95825195 429.40454102 C-178.96126223 428.10076374 -179.96665532 426.79881759 -180.97387695 425.49829102 C-182.05278825 424.0926442 -183.13091245 422.68639288 -184.20825195 421.27954102 C-184.71614258 420.62260254 -185.2240332 419.96566406 -185.74731445 419.28881836 C-192.47382093 410.3846499 -197.51342562 399.74486672 -197.95825195 388.40454102 C-196.84176541 383.97111387 -194.77958549 380.95610205 -191.95825195 377.40454102 C-191.28020508 376.47383789 -190.6021582 375.54313477 -189.90356445 374.58422852 C-184.14816056 366.96103317 -184.14816056 366.96103317 -179.95825195 365.40454102 C-178.96825195 365.40454102 -177.97825195 365.40454102 -176.95825195 365.40454102 C-176.72106445 364.54086914 -176.48387695 363.67719727 -176.23950195 362.78735352 C-174.80977671 359.01253016 -172.95096817 356.44399569 -170.45825195 353.27954102 C-166.7764583 348.60834095 -166.7764583 348.60834095 -163.95825195 343.40454102 C-163.07266602 343.65719727 -162.18708008 343.90985352 -161.2746582 344.17016602 C-157.89434585 344.75293327 -157.89434585 344.75293327 -155.3605957 342.63891602 C-154.54719727 341.81907227 -153.73379883 340.99922852 -152.89575195 340.15454102 C-150.4248301 337.70313671 -148.2997617 335.60534073 -145.29418945 333.83813477 C-142.81292882 332.31535441 -141.94734422 331.27201843 -140.64575195 328.71704102 C-139.81043945 327.07735352 -139.81043945 327.07735352 -138.95825195 325.40454102 C-128.7707541 326.14544995 -121.11675771 330.44942732 -112.95825195 336.40454102 C-111.75749023 337.2765918 -111.75749023 337.2765918 -110.5324707 338.16625977 C-107.39490673 340.89436926 -105.02029875 343.91141689 -102.52075195 347.21704102 C-101.14247601 349.02000684 -99.75963537 350.81825471 -98.36035156 352.60498047 C-97.44362019 353.78158276 -96.54498859 354.97257295 -95.66748047 356.17871094 C-91.35514738 361.75969659 -85.89562105 364.75444266 -79.77075195 368.09204102 C-78.30412109 368.92445313 -78.30412109 368.92445313 -76.80786133 369.77368164 C-65.0712365 376.29747641 -53.06413937 379.56642229 -40.07006836 382.55151367 C-37.4603286 383.15406155 -34.85593741 383.77677694 -32.2512207 384.40063477 C-10.36280287 389.53795215 5.22109392 385.71015305 24.26049805 374.04516602 C32.1349843 368.24668068 38.1058195 355.79948837 40.04174805 346.40454102 C41.15608484 336.37550987 36.69017657 327.13921469 32.37939453 318.35571289 C30.04174805 313.58403503 30.04174805 313.58403503 30.04174805 311.40454102 C29.44966553 311.12690918 28.85758301 310.84927734 28.24755859 310.56323242 C26.18390941 309.47921703 24.54938427 308.33394867 22.7487793 306.86547852 C13.39852778 299.42651057 4.14934641 293.81412832 -6.95825195 289.40454102 C-7.63484863 289.13448242 -8.31144531 288.86442383 -9.00854492 288.58618164 C-23.18044822 283.08977672 -38.11584572 280.44276699 -52.95825195 277.40454102 C-63.85700622 275.15912027 -74.03789401 272.10335292 -84.4309082 268.10766602 C-88.25110007 266.64430857 -92.1059936 265.40790962 -96.02075195 264.21704102 C-103.31322197 261.81275505 -110.27539515 258.75020791 -117.27075195 255.59204102 C-118.36846924 255.10646729 -119.46618652 254.62089355 -120.59716797 254.12060547 C-127.94924055 250.73320775 -133.80851671 246.62788519 -139.95825195 241.40454102 C-141.75829024 240.11611726 -143.56796374 238.84078592 -145.39575195 237.59204102 C-159.74899558 227.16620115 -168.6936894 214.49010161 -175.36328125 198.29638672 C-177.21527039 193.86734479 -179.38680172 189.94027159 -182.02075195 185.90454102 C-196.39373461 163.3423008 -199.8978519 130.6603511 -195.2746582 104.63500977 C-194.36904587 101.10650364 -193.27917687 97.79766689 -191.95825195 94.40454102 C-191.54575195 93.22118164 -191.13325195 92.03782227 -190.70825195 90.81860352 C-182.07987871 67.43375103 -167.55613262 46.87249049 -149.95825195 29.40454102 C-149.20946777 28.65986572 -149.20946777 28.65986572 -148.44555664 27.90014648 C-137.65062295 17.30757181 -126.27039611 10.99433393 -111.95825195 6.40454102 C-110.92313477 6.06712891 -109.88801758 5.7297168 -108.8215332 5.38208008 C-92.20400002 0.07185924 -77.06321778 -2.47212397 -59.6496582 -2.53588867 C-14.25498088 -3.54063298 -14.25498088 -3.54063298 0 0 Z " fill="#6ABC44" transform="translate(855.958251953125,423.595458984375)"/>
<path d="M0 0 C11.36988454 11.00311407 13.70249538 32.00572552 15.9609375 46.85546875 C16.13205551 47.97669128 16.30317352 49.09791382 16.47947693 50.25311279 C18.42618421 63.37439971 19.758376 76.55219585 21.0625 89.75 C21.32290141 92.34843101 21.58372933 94.94681932 21.8449707 97.54516602 C22.22793044 101.35671158 22.61022832 105.16831196 22.98936462 108.98023987 C23.60044099 115.11075773 24.23532407 121.2356249 24.9453125 127.35546875 C27.43945812 149.11885008 28.24351718 171.00406786 29.26733398 192.87516212 C29.77003636 203.59291403 30.33862357 214.30595273 30.93759346 225.01873016 C32.71891381 256.96543262 34.38686242 288.87071639 34.375 320.875 C34.37758316 322.62055176 34.37758316 322.62055176 34.38021851 324.40136719 C34.37668619 345.13422837 33.52220685 366.00595352 30.1875 386.5 C30.01718262 387.56766602 29.84686523 388.63533203 29.67138672 389.73535156 C26.2160815 410.42986184 19.87605074 428.26319421 7 445 C5.80572535 446.58052954 4.61172944 448.16126973 3.41796875 449.7421875 C2.17608903 451.37102034 0.93261258 452.99863709 -0.3125 454.625 C-0.89902344 455.39553711 -1.48554687 456.16607422 -2.08984375 456.95996094 C-9.14232942 466.04526925 -18.01650785 470.67777385 -28 476 C-28.6276123 476.33499512 -29.25522461 476.66999023 -29.90185547 477.01513672 C-74.36414053 500.30604554 -146.02146329 502.1516736 -193.6875 488.1875 C-201.14689083 485.8540572 -208.30523544 482.92723681 -215.39453125 479.6484375 C-218.6268229 478.17061835 -221.87712165 476.852033 -225.1875 475.5625 C-240.5739375 469.17056994 -253.97591985 458.35154686 -266 447 C-267.04800781 446.03126953 -267.04800781 446.03126953 -268.1171875 445.04296875 C-293.55922158 420.73939144 -305.55382732 381.32332596 -307 347 C-307.20557624 329.15598221 -304.67451927 311.67353915 -299.921875 294.49609375 C-298.96270414 291.15605221 -298.96270414 291.15605221 -298.640625 288.28515625 C-298.17043208 285.53452767 -297.75688298 284.1982889 -296 282 C-291.0726374 278.61523277 -285.50846932 276.26735792 -280 274 C-278.81096069 273.46415283 -278.81096069 273.46415283 -277.59790039 272.91748047 C-274.7682309 271.91814789 -272.54399813 271.73130885 -269.55078125 271.69140625 C-268.03194336 271.65370117 -268.03194336 271.65370117 -266.48242188 271.61523438 C-264.35748613 271.57988424 -262.23247764 271.54867887 -260.10742188 271.52148438 C-259.09873047 271.49505859 -258.09003906 271.46863281 -257.05078125 271.44140625 C-256.12950439 271.42795166 -255.20822754 271.41449707 -254.2590332 271.40063477 C-253.51355225 271.26842529 -252.76807129 271.13621582 -252 271 C-251.34 270.01 -250.68 269.02 -250 268 C-245.51474352 268.656379 -241.33085971 269.70074209 -237 271 C-237.33 269.68 -237.66 268.36 -238 267 C-235.03 267 -232.06 267 -229 267 C-228.34 268.32 -227.68 269.64 -227 271 C-223.45173466 271.16896502 -221.34769429 271.17384714 -218.125 269.5625 C-215 269 -215 269 -213.0546875 270.109375 C-199.0253664 281.73824192 -195.7280123 298.6718327 -194 316 C-193.50694784 322.45857583 -193.18518842 328.92483474 -192.87695312 335.39453125 C-191.68233314 356.8115923 -185.94432767 373.11848268 -170.125 388.21875 C-159.85607708 396.82652362 -143.19028072 399.98946769 -130 399 C-118.5891293 396.74859046 -110.86074682 391.1602377 -104.25 381.75 C-92.32448768 363.94557087 -88.66697006 343.75028556 -88.74121094 322.61767578 C-88.7377063 321.36005432 -88.73420166 320.10243286 -88.73059082 318.80670166 C-88.72157846 315.39635959 -88.72496881 311.98614045 -88.73134899 308.5757966 C-88.7364875 304.95798874 -88.7316943 301.34018996 -88.72857666 297.72238159 C-88.72495115 291.63179689 -88.72968995 285.54126087 -88.73925781 279.45068359 C-88.75005129 272.50162027 -88.74667803 265.5526752 -88.735605 258.60361493 C-88.7263844 252.56635438 -88.72531978 246.52912848 -88.73048234 240.49186313 C-88.73353409 236.91845655 -88.73420909 233.34510445 -88.72740936 229.77170181 C-88.70277371 214.73507645 -88.98109056 199.76575276 -89.92236328 184.75927734 C-90.00393047 183.45756151 -90.08549767 182.15584568 -90.16953659 180.81468391 C-90.92985814 169.61580744 -92.35408596 158.57821496 -94.125 147.5 C-94.40624425 145.67077176 -94.68618936 143.84134331 -94.96484375 142.01171875 C-95.62851328 137.6720594 -96.30886412 133.33536599 -97 129 C-124.46367438 128.99379012 -124.46367438 128.99379012 -151.75 131.5625 C-165.88508231 133.75113256 -184.56886165 136.12748261 -198 130 C-201.22483882 127.13139337 -202.94327285 123.75869132 -205 120 C-205.91947569 118.58057219 -206.85008222 117.16831993 -207.7890625 115.76171875 C-214.81881224 105.08619692 -218.09447694 96.92444556 -218 84 C-218.66 84 -219.32 84 -220 84 C-220 84.66 -220 85.32 -220 86 C-220.66 86 -221.32 86 -222 86 C-225.42925962 79.14148076 -222.98273645 68.3733655 -221.2421875 61.20703125 C-220.72918632 58.7105579 -220.72918632 58.7105579 -223 56 C-223.36683254 47.74626775 -221.80583232 40.84065078 -216.70703125 34.35546875 C-208.27155217 25.78987945 -189.54747214 22.20820765 -177.953125 21.92578125 C-176.06785499 21.97418683 -174.18273158 22.02882321 -172.29785156 22.09057617 C-168.66315601 21.99074851 -165.40148165 21.37321634 -161.84375 20.625 C-153.27852202 18.91825573 -144.70060483 18.02980587 -136.00994873 17.23635864 C-131.61020586 16.83210676 -127.21352677 16.39653465 -122.81640625 15.96484375 C-121.9591394 15.88113022 -121.10187256 15.79741669 -120.21862793 15.71116638 C-113.43113136 15.04713824 -106.64733588 14.36888484 -99.875 13.5625 C-99.05056396 13.47677734 -98.22612793 13.39105469 -97.37670898 13.30273438 C-92.39385232 12.678283 -88.19907004 11.33736606 -83.53125 9.47265625 C-74.97892797 6.29084078 -66.6712373 6.09609309 -57.625 5.875 C-55.23298038 5.80665658 -52.84179946 5.73143535 -50.45053101 5.64041138 C-48.97948903 5.58525933 -47.50788066 5.54293417 -46.03604126 5.51657104 C-40.06591055 5.30714747 -35.0424528 3.73854446 -29.8125 0.75 C-27.23679554 -0.31580874 -25.61271234 0.17493294 -23 1 C-22.34 1.66 -21.68 2.32 -21 3 C-15.60434277 2.71601804 -11.094536 1.49030368 -6.078125 -0.4765625 C-3.63343291 -1.09233081 -2.34205557 -0.88751579 0 0 Z " fill="#FE6B5D" transform="translate(578,427)"/>
</svg>
