<?xml version="1.0" encoding="UTF-8"?>
<svg version="1.1" xmlns="http://www.w3.org/2000/svg" width="1280" height="1280">
<path d="M0 0 C4.13655401 1.01225834 8.17738944 1.73377146 12.41650391 2.21704102 C47.42912003 6.83142048 75.89796574 21.43196394 101.56494141 45.13891602 C103.55370358 46.95828835 105.56777541 48.72612287 107.60791016 50.48657227 C112.5655959 54.82164874 117.37607321 59.30434819 122.09936523 63.89257812 C123.10996051 64.86611442 124.1293725 65.83057351 125.15698242 66.78613281 C133.70190281 74.74417309 133.70190281 74.74417309 134.52172852 78.75244141 C133.63401789 86.93011074 128.90996651 91.76133178 122.94384766 96.70532227 C119.52963403 99.7549792 117.4951008 103.04375033 116.04150391 107.40454102 C113.38916016 108.79125977 113.38916016 108.79125977 110.10400391 110.09204102 C109.02248047 110.5290332 107.94095703 110.96602539 106.82666016 111.41625977 C104.04150391 112.40454102 104.04150391 112.40454102 102.04150391 112.40454102 C101.97962891 113.12641602 101.91775391 113.84829102 101.85400391 114.59204102 C100.75261616 118.40453705 99.04837526 119.82038632 96.04150391 122.40454102 C93.47808368 123.74416661 90.81815896 124.72603745 88.10400391 125.71704102 C80.9745483 128.46977729 74.53331006 131.76197071 67.99462891 135.70532227 C62.47743458 138.87989837 59.40329564 140.02306539 53.04150391 138.40454102 C49.83679242 136.85296546 46.86081339 134.994151 43.85400391 133.09204102 C42.0753923 131.99823536 40.29674545 130.90448702 38.51806641 129.81079102 C36.69244254 128.67554003 34.86692118 127.54012416 33.04150391 126.40454102 C12.14724918 113.50131374 -9.62500125 100.58120416 -34.95849609 100.40454102 C-35.78994141 100.3671582 -36.62138672 100.32977539 -37.47802734 100.29125977 C-50.2883685 99.89805059 -64.00787766 101.95282139 -74.52099609 109.77954102 C-80.99975964 116.75667099 -80.71264116 124.85336306 -80.42724609 133.84985352 C-80.00069329 139.69125723 -78.21433339 143.37036191 -73.95849609 147.40454102 C-73.33974609 148.02200195 -72.72099609 148.63946289 -72.08349609 149.27563477 C-57.53998776 162.08383813 -33.65999522 165.06262935 -15.42095947 169.09072876 C-4.6525639 171.47855791 6.0205792 174.14511948 16.66650391 177.02954102 C17.34697784 177.21150024 18.02745178 177.39345947 18.72854614 177.58093262 C27.7251412 179.99480979 36.41832878 182.86983564 45.04150391 186.40454102 C45.85280762 186.73470215 46.66411133 187.06486328 47.5 187.4050293 C58.24341227 191.86157336 68.32127562 197.0155215 78.04150391 203.40454102 C78.93047363 203.98824463 78.93047363 203.98824463 79.83740234 204.58374023 C88.47591437 210.33567909 96.17365353 216.81577044 103.61767578 224.03637695 C104.86720709 225.23705827 106.14741534 226.40564385 107.43212891 227.56860352 C119.23287852 238.56282707 127.67507158 253.19477905 135.04150391 267.40454102 C135.37021484 268.03070312 135.69892578 268.65686523 136.03759766 269.30200195 C143.978294 284.61734099 146.48006 300.12257962 148.64770508 317.11401367 C149.39805029 322.98336315 150.19720191 328.75263872 151.60888672 334.50292969 C156.60179507 356.44974864 152.03570364 378.90209573 144.04150391 399.40454102 C143.75726562 400.15896484 143.47302734 400.91338867 143.18017578 401.69067383 C136.94847092 418.21793584 136.94847092 418.21793584 131.04150391 423.40454102 C130.38923828 423.99235352 129.73697266 424.58016602 129.06494141 425.18579102 C127.74716973 426.35056299 126.41656524 427.50111535 125.06884766 428.63110352 C120.43040536 432.68862337 116.75520321 437.0143192 113.29150391 442.09204102 C106.28837341 452.09296149 98.24655124 460.39689822 89.04150391 468.40454102 C88.36216797 469.02200195 87.68283203 469.63946289 86.98291016 470.27563477 C68.11977534 487.31697789 44.56711521 494.54680168 19.60400391 496.46704102 C17.66778889 496.62438287 15.73159091 496.78193439 13.79541016 496.93969727 C12.83328613 497.0113208 11.87116211 497.08294434 10.87988281 497.15673828 C9.06485732 497.31519784 7.25278591 497.51737419 5.44921875 497.77539062 C-3.10825211 498.92083455 -11.0648117 497.37390383 -19.45849609 495.84204102 C-21.04038215 495.56348888 -22.62250014 495.28625104 -24.20483398 495.01025391 C-27.48339369 494.43695554 -30.76057715 493.8564956 -34.03710938 493.27172852 C-38.80582605 492.42525394 -43.58176625 491.62762099 -48.36083984 490.84204102 C-64.02400389 488.25766172 -79.64072712 485.64623608 -94.95849609 481.40454102 C-95.7609375 481.18330566 -96.56337891 480.96207031 -97.39013672 480.73413086 C-121.95390173 473.81276816 -143.0913595 461.33515519 -162.95849609 445.40454102 C-163.72935547 444.79868164 -164.50021484 444.19282227 -165.29443359 443.56860352 C-172.2895908 437.75157805 -177.54841339 430.65143864 -182.95849609 423.40454102 C-183.65869873 422.48535889 -183.65869873 422.48535889 -184.37304688 421.54760742 C-189.46442451 414.85663988 -194.0362322 408.72042179 -195.95849609 400.40454102 C-196.30138672 399.3977832 -196.64427734 398.39102539 -196.99755859 397.35375977 C-198.84227341 391.36195706 -199.6223924 387.40437125 -196.64599609 381.71704102 C-195.47176689 379.90931118 -194.23956218 378.13819931 -192.95849609 376.40454102 C-192.28173828 375.46868164 -191.60498047 374.53282227 -190.90771484 373.56860352 C-185.10922002 365.94647661 -185.10922002 365.94647661 -180.95849609 364.40454102 C-179.96849609 364.40454102 -178.97849609 364.40454102 -177.95849609 364.40454102 C-177.72130859 363.54086914 -177.48412109 362.67719727 -177.23974609 361.78735352 C-175.81002085 358.01253016 -173.95121231 355.44399569 -171.45849609 352.27954102 C-167.77670244 347.60834095 -167.77670244 347.60834095 -164.95849609 342.40454102 C-164.07291016 342.65719727 -163.18732422 342.90985352 -162.27490234 343.17016602 C-158.89458999 343.75293327 -158.89458999 343.75293327 -156.36083984 341.63891602 C-155.54744141 340.81907227 -154.73404297 339.99922852 -153.89599609 339.15454102 C-151.42507424 336.70313671 -149.30000584 334.60534073 -146.29443359 332.83813477 C-143.81317296 331.31535441 -142.94758836 330.27201843 -141.64599609 327.71704102 C-140.81068359 326.07735352 -140.81068359 326.07735352 -139.95849609 324.40454102 C-126.34275866 325.41311416 -115.5589523 332.28779145 -106.41162109 342.15063477 C-103.51557942 345.67082335 -100.75320786 349.23357191 -98.19287109 353.00610352 C-92.7593108 360.63671211 -86.12512512 364.26008385 -77.93115234 368.3815918 C-76.20458499 369.27692808 -74.52895673 370.26912354 -72.86474609 371.27563477 C-61.48314034 377.86112572 -48.31999228 379.90378828 -35.59692383 382.61523438 C-30.98417542 383.61590643 -26.39567326 384.70994061 -21.80810547 385.81982422 C-5.2602754 389.21530511 9.56127194 381.43820426 23.26025391 373.04516602 C30.84897846 367.45710521 37.63195353 354.63068891 39.04150391 345.40454102 C39.61625043 335.51890084 36.11121237 327.1770237 32.04150391 318.40454102 C31.69474609 317.61950195 31.34798828 316.83446289 30.99072266 316.02563477 C22.39601679 299.59945946 -2.02464407 290.21810247 -18.52490234 284.91235352 C-27.28678595 282.21652407 -36.0259016 280.16198666 -45.05151367 278.56201172 C-70.8297251 273.92747514 -96.02136494 265.26445386 -119.89599609 254.52954102 C-121.25023682 253.92493042 -121.25023682 253.92493042 -122.63183594 253.30810547 C-128.27081736 250.62728711 -132.9155294 247.28409009 -137.68530273 243.26123047 C-139.86228303 241.48312553 -142.08029398 239.9607878 -144.45849609 238.46704102 C-161.39839085 227.42318737 -170.92500127 212.11426612 -178.39599609 193.82250977 C-179.98449117 190.34767679 -181.8503702 187.33669317 -183.95849609 184.15454102 C-198.11455091 161.77011017 -200.71012238 128.80683006 -196.18505859 103.15454102 C-191.17314156 81.07823981 -177.61235733 60.98388736 -163.95849609 43.40454102 C-163.27787109 42.50606445 -162.59724609 41.60758789 -161.89599609 40.68188477 C-157.69150829 35.23740153 -153.25076093 30.77506109 -147.95849609 26.40454102 C-146.6445737 25.21861503 -145.33208052 24.03110372 -144.02099609 22.84204102 C-132.52271899 12.84256657 -119.81369977 8.05146757 -105.20849609 4.21704102 C-103.92049878 3.87222156 -102.63273676 3.52652197 -101.34521484 3.17993164 C-98.97824114 2.54437822 -96.61020601 1.91275311 -94.24072266 1.28662109 C-91.95306359 0.67182548 -89.67748439 0.01102819 -87.41308594 -0.68457031 C-84.15112899 -1.54466652 -81.40348236 -1.87447237 -78.04443359 -1.93920898 C-76.95904297 -1.96756836 -75.87365234 -1.99592773 -74.75537109 -2.02514648 C-73.06154297 -2.05995117 -73.06154297 -2.05995117 -71.33349609 -2.09545898 C-15.00447036 -3.72636619 -15.00447036 -3.72636619 0 0 Z " fill="#FEFEFE" transform="translate(855.95849609375,423.595458984375)"/>
<path d="M0 0 C20.3695702 19.09647206 18.78349327 65.42367175 21.34472656 91.14044189 C21.63234086 94.00908816 21.92770895 96.87691235 22.22313976 99.74476242 C25.72618575 133.78591605 28.38462757 167.78560637 29.9412384 201.97280884 C30.14898385 206.51654437 30.36234993 211.06001662 30.57519531 215.60351562 C30.82674853 220.97696846 31.07788514 226.35043683 31.32577515 231.72406006 C31.74071843 240.69115186 32.1818769 249.65529856 32.69921875 258.6171875 C33.82785484 278.43618405 34.20152748 298.21017203 34.25 318.0625 C34.25535767 319.27599121 34.26071533 320.48948242 34.26623535 321.73974609 C34.33675053 342.65497519 33.54618685 363.56273778 30.25 384.25 C30.08081055 385.31589355 29.91162109 386.38178711 29.73730469 387.47998047 C26.01261883 409.68585628 19.15681833 428.36811424 5 446 C3.66121654 447.73307242 2.33220475 449.47336685 1.00341797 451.21411133 C-0.98554519 453.81895195 -2.98885325 456.41225505 -5 459 C-5.58394531 459.84949219 -6.16789062 460.69898438 -6.76953125 461.57421875 C-9.85379888 464.92856236 -13.37508791 466.75985886 -17.375 468.875 C-18.1786499 469.30772217 -18.9822998 469.74044434 -19.81030273 470.1862793 C-21.44036502 471.05964832 -23.07340653 471.92748112 -24.70947266 472.78955078 C-26.71692692 473.85040755 -28.70932228 474.93408483 -30.69921875 476.02734375 C-74.99051248 499.53619536 -147.16354358 501.09009269 -194.5 487.25 C-203.51110684 484.43345757 -212.20966286 480.80856811 -220.82641602 476.9675293 C-222.31239418 476.30607457 -223.80271815 475.65432006 -225.29663086 475.01098633 C-230.11181885 472.92343581 -234.69325151 470.64803175 -239.1875 467.9375 C-239.82042969 467.55682373 -240.45335937 467.17614746 -241.10546875 466.78393555 C-248.18545472 462.41952455 -254.59625795 457.2882515 -261 452 C-262.08087891 451.13375 -262.08087891 451.13375 -263.18359375 450.25 C-288.57125125 429.44229853 -303.64016486 392.0329737 -307 360 C-309.02595127 339.2388696 -307.16378395 318.67892802 -302.52685547 298.36572266 C-302.18646736 296.83728855 -301.87112209 295.30296373 -301.58642578 293.76318359 C-299.60350693 283.08875642 -299.60350693 283.08875642 -295.29101562 279.62890625 C-290.78481975 276.79543147 -285.97620042 274.83938147 -281 273 C-280.20875732 272.64711914 -279.41751465 272.29423828 -278.60229492 271.93066406 C-275.76747665 270.9168422 -273.5532232 270.73143183 -270.55078125 270.69140625 C-269.03194336 270.65370117 -269.03194336 270.65370117 -267.48242188 270.61523438 C-265.35748613 270.57988424 -263.23247764 270.54867887 -261.10742188 270.52148438 C-260.09873047 270.49505859 -259.09003906 270.46863281 -258.05078125 270.44140625 C-257.12950439 270.42795166 -256.20822754 270.41449707 -255.2590332 270.40063477 C-254.51355225 270.26842529 -253.76807129 270.13621582 -253 270 C-252.34 269.01 -251.68 268.02 -251 267 C-246.51474352 267.656379 -242.33085971 268.70074209 -238 270 C-238.33 268.68 -238.66 267.36 -239 266 C-236.03 266 -233.06 266 -230 266 C-229.34 267.32 -228.68 268.64 -228 270 C-224.45173466 270.16896502 -222.34769429 270.17384714 -219.125 268.5625 C-216 268 -216 268 -214.0546875 269.109375 C-200.0253664 280.73824192 -196.7280123 297.6718327 -195 315 C-194.50694784 321.45857583 -194.18518842 327.92483474 -193.87695312 334.39453125 C-192.68233314 355.8115923 -186.94432767 372.11848268 -171.125 387.21875 C-161.5059689 395.28176137 -144.86714531 399.13349068 -132.3828125 398.4375 C-120.57886083 396.27021707 -111.9663212 390.61880017 -104.81640625 381.08984375 C-90.09215679 358.62770893 -88.36773396 333.46073638 -88.52856112 307.30542803 C-88.54650386 303.7534633 -88.5425997 300.20150646 -88.5418396 296.64950562 C-88.54369934 290.68047168 -88.56086527 284.71164383 -88.58837891 278.74267578 C-88.61967005 271.93089988 -88.63037907 265.11934982 -88.6289078 258.30750716 C-88.62753409 250.94247177 -88.6415537 243.57751859 -88.65980101 236.21250868 C-88.66397719 234.14382177 -88.66547129 232.07514897 -88.66627884 230.00645828 C-88.69596987 203.81019302 -89.70701532 177.86175814 -94.125 152 C-94.54391597 149.48213542 -94.95867743 146.96367678 -95.36862183 144.44433594 C-95.61866793 142.91406081 -95.8741706 141.38466179 -96.13650513 139.85644531 C-96.80132771 135.85867457 -97.12601864 132.05161806 -97 128 C-98.17755859 128.24943359 -98.17755859 128.24943359 -99.37890625 128.50390625 C-103.93618931 129.12825894 -108.34677667 129.0180176 -112.9375 128.9375 C-127.26257612 128.81460003 -141.46654027 129.9634031 -155.625 132.125 C-168.76333411 133.95587153 -185.49110478 135.27353424 -198 130 C-199.92578125 128.0390625 -199.92578125 128.0390625 -202 125 C-202.52376221 124.248396 -203.04752441 123.49679199 -203.5871582 122.72241211 C-205.45883413 120.01910642 -207.29418577 117.29362184 -209.125 114.5625 C-209.75792969 113.63373047 -210.39085937 112.70496094 -211.04296875 111.74804688 C-215.81788755 104.62622 -218.13486475 99.28405607 -218.625 90.625 C-218.73714844 88.75714844 -218.73714844 88.75714844 -218.8515625 86.8515625 C-218.92503906 85.44003906 -218.92503906 85.44003906 -219 84 C-219.66 84 -220.32 84 -221 84 C-221.33 84.66 -221.66 85.32 -222 86 C-225.46863082 80.79705377 -224.70931736 73.56928494 -223.51171875 67.54296875 C-223.32222656 66.86878906 -223.13273437 66.19460938 -222.9375 65.5 C-221.80958678 61.28912396 -222.07944427 58.84111145 -224 55 C-224.05478365 47.87812536 -223.47759601 40.79453601 -219 35 C-207.62751101 24.8911209 -189.0293811 21.38779644 -174.15380859 22.05712891 C-170.6645198 21.99392302 -167.58837071 21.39501952 -164.17578125 20.6640625 C-153.01358724 18.4241294 -141.69576806 17.51603263 -130.375 16.4375 C-107.26364361 15.16063876 -107.26364361 15.16063876 -85.125 9.4375 C-75.55762218 6.02556755 -65.89316281 6.3262908 -55.83642578 6.09472656 C-43.68490619 5.73505216 -43.68490619 5.73505216 -32.375 1.8125 C-29 0 -29 0 -25.625 0.125 C-23 1 -23 1 -21 3 C-16.80230178 2.74299807 -13.31983741 1.80409803 -9.375 0.375 C-5.87114716 -0.8266609 -3.51996422 -1.6091265 0 0 Z " fill="#FEFEFE" transform="translate(578,427)"/>
</svg>
